<?xml version="1.0" encoding="us-ascii" standalone="no"?><svg xmlns="http://www.w3.org/2000/svg" xmlns:xlink="http://www.w3.org/1999/xlink" contentStyleType="text/css" height="400px" preserveAspectRatio="none" style="width:492px;height:400px;background:#FFFFFF;" version="1.1" viewBox="0 0 492 400" width="492px" zoomAndPan="magnify"><defs/><g><!--cluster AWS Cloud--><g id="cluster_AWS Cloud"><path d="M32.9675,33.871 C41.44,19.6755 52.2481,17.361 61.8614,32.757 C70.6765,18.16 79.7898,15.9723 92.4461,28.4117 C102.556,14.4338 116.2108,11.7976 125.082,29.6805 C131.729,12.7679 146.5802,11.995 156.8069,26.0082 C163.5564,11.1532 175.9259,12.0776 184.149,24.5329 C192.5639,9.5503 201.6125,9.4817 212.9131,21.4536 C221.6872,7.9936 237.7169,6 246.5316,21.4063 C257.1124,9.2128 268.45,8.7761 275.7785,24.7796 C284.8897,12.5485 298.005,13.5715 305.9425,26.2036 C314.7487,12.1885 327.6123,14.5151 334.222,28.4278 C341.5205,16.5193 355.5489,13.7323 363.28,27.9466 C376.8349,13.3338 386.8337,15.6836 396.7124,31.9294 C406.7125,19.9737 417.5667,19.3355 426.7094,32.9357 C440.0325,19.9388 450.5211,20.5321 460.0203,37.2258 C462.6539,36.7301 464.0742,38.613 463.4425,41.044 C477.0956,50.527 480.8722,59.2451 465.5703,70.7988 C485.2131,83.5608 480.15,95.3869 464.5666,107.177 C476.0892,117.4502 476.2014,127.759 461.6361,135.3155 C479.7401,143.5018 480.2184,160.2094 463.6267,170.3662 C479.8007,177.7185 480.5049,190.8855 466.3928,200.9746 C479.6203,210.4127 480.2774,221.9299 466.2793,231.266 C482.2818,243.9964 483.4577,255.9553 465.411,267.8781 C482.3016,278.3054 481.7399,291.8739 463.7083,300.4771 C480.2377,308.7115 481.5784,323.182 464.3903,332.1426 C476.1684,347.4434 473.3145,362.032 453.0203,366.8158 C453.9809,364.9449 455.606,365.1128 456.4669,366.9094 C450.8425,383.5112 434.509,385.5242 423.2506,373.4312 C415.6712,386.8891 402.1711,385.3254 395.9997,371.9987 C387.7583,385.7323 376.4974,386.1892 367.2348,373.0936 C358.3434,389.0103 346.9469,387.8426 335.4678,376.0615 C326.2234,390.3951 316.0496,388.5936 307.0851,375.769 C298.6962,389.0535 285.1239,391.9123 276.7322,375.7719 C268.821,390.0762 254.8309,389.3582 245.9129,376.9328 C235.4189,393.1318 223.3217,390.6538 213.0268,376.7155 C203.2531,393.3983 192.1281,393.1699 182.2192,376.8418 C172.8819,390.7562 161.717,391.7521 152.7208,376.4969 C141.4849,389.76 130.21,385.9658 123.1951,371.9314 C115.3334,384.8023 101.7594,384.226 94.8993,370.8516 C86.705,387.2413 74.5616,388.8194 63.7752,373.3869 C44.6724,390.1937 29.9453,381.612 24.0203,359.8158 C25.4476,359.9476 26.1865,360.925 25.3971,362.2902 C10.7811,351.671 9.4662,340.8571 25.7689,330.6006 C8.5357,320.2914 10.2322,308.2081 26.2261,298.3703 C8.5303,287.9048 9.9805,277.6292 24.5589,265.5254 C6.4233,259.208 8.5021,244.2286 20.7267,234.1973 C6.0579,223.1249 9.0388,210.5187 22.9541,201.3869 C6,192.2434 6.5416,181.2587 20.9808,170.133 C9.3017,158.7694 6.5186,146.3195 24.8824,138.6829 C8.7548,129.1314 7.4882,115.8169 22.6587,104.2444 C10.5993,91.7563 8.2243,78.2883 27.6366,70.4337 C7.1229,56.8941 11.2969,40.3792 31.0203,30.2258 C33.2909,30.3527 34.3219,31.8077 32.9675,33.871 " fill="none" style="stroke:#181818;stroke-width:1.0;"/><text fill="#000000" font-family="sans-serif" font-size="14" font-weight="bold" lengthAdjust="spacing" textLength="86" x="199.0203" y="48.2209">AWS Cloud</text></g><!--cluster VPC--><g id="cluster_VPC"><rect fill="none" height="285.59" rx="2.5" ry="2.5" style="stroke:#181818;stroke-width:1.0;" width="404" x="40.0203" y="65.2258"/><path d="M82.0203,65.2258 L82.0203,74.5227 L72.0203,84.5227 L40.0203,84.5227 " fill="none" style="stroke:#181818;stroke-width:1.0;"/><text fill="#000000" font-family="sans-serif" font-size="14" font-weight="bold" lengthAdjust="spacing" textLength="32" x="43.0203" y="79.2209">VPC</text></g><!--cluster Subnet Publica--><g id="cluster_Subnet Publica"><rect fill="none" height="97.29" rx="2.5" ry="2.5" style="stroke:#181818;stroke-width:1.0;" width="198" x="143.0203" y="108.2258"/><text fill="#000000" font-family="sans-serif" font-size="14" font-weight="bold" lengthAdjust="spacing" textLength="117" x="183.5203" y="123.2209">Subnet Publica</text></g><!--cluster Subnet Privada A--><g id="cluster_Subnet Privada A"><rect fill="none" height="97.3" rx="2.5" ry="2.5" style="stroke:#181818;stroke-width:1.0;" width="166" x="64.0203" y="229.5158"/><text fill="#000000" font-family="sans-serif" font-size="14" font-weight="bold" lengthAdjust="spacing" textLength="135" x="79.5203" y="244.5109">Subnet Privada A</text></g><!--cluster Subnet Privada B--><g id="cluster_Subnet Privada B"><rect fill="none" height="97.3" rx="2.5" ry="2.5" style="stroke:#181818;stroke-width:1.0;" width="166" x="254.0203" y="229.5158"/><text fill="#000000" font-family="sans-serif" font-size="14" font-weight="bold" lengthAdjust="spacing" textLength="134" x="270.0203" y="244.5109">Subnet Privada B</text></g><!--entity EC2 Control-Plane--><g id="elem_EC2 Control-Plane"><rect fill="#F1F1F1" height="46.2969" rx="2.5" ry="2.5" style="stroke:#181818;stroke-width:0.5;" width="165" x="159.5203" y="143.2258"/><rect fill="#F1F1F1" height="10" style="stroke:#181818;stroke-width:0.5;" width="15" x="304.5203" y="148.2258"/><rect fill="#F1F1F1" height="2" style="stroke:#181818;stroke-width:0.5;" width="4" x="302.5203" y="150.2258"/><rect fill="#F1F1F1" height="2" style="stroke:#181818;stroke-width:0.5;" width="4" x="302.5203" y="154.2258"/><text fill="#000000" font-family="sans-serif" font-size="14" lengthAdjust="spacing" textLength="125" x="174.5203" y="176.2209">EC2 Control-Plane</text></g><!--entity EC2 Worker 1--><g id="elem_EC2 Worker 1"><rect fill="#F1F1F1" height="46.2969" rx="2.5" ry="2.5" style="stroke:#181818;stroke-width:0.5;" width="134" x="80.0203" y="264.5158"/><rect fill="#F1F1F1" height="10" style="stroke:#181818;stroke-width:0.5;" width="15" x="194.0203" y="269.5158"/><rect fill="#F1F1F1" height="2" style="stroke:#181818;stroke-width:0.5;" width="4" x="192.0203" y="271.5158"/><rect fill="#F1F1F1" height="2" style="stroke:#181818;stroke-width:0.5;" width="4" x="192.0203" y="275.5158"/><text fill="#000000" font-family="sans-serif" font-size="14" lengthAdjust="spacing" textLength="94" x="95.0203" y="297.5109">EC2 Worker 1</text></g><!--entity EC2 Worker 2--><g id="elem_EC2 Worker 2"><rect fill="#F1F1F1" height="46.2969" rx="2.5" ry="2.5" style="stroke:#181818;stroke-width:0.5;" width="134" x="270.0203" y="264.5158"/><rect fill="#F1F1F1" height="10" style="stroke:#181818;stroke-width:0.5;" width="15" x="384.0203" y="269.5158"/><rect fill="#F1F1F1" height="2" style="stroke:#181818;stroke-width:0.5;" width="4" x="382.0203" y="271.5158"/><rect fill="#F1F1F1" height="2" style="stroke:#181818;stroke-width:0.5;" width="4" x="382.0203" y="275.5158"/><text fill="#000000" font-family="sans-serif" font-size="14" lengthAdjust="spacing" textLength="94" x="285.0203" y="297.5109">EC2 Worker 2</text></g><!--link EC2 Control-Plane to EC2 Worker 1--><g id="link_EC2 Control-Plane_EC2 Worker 1"><path d="M224.1503,189.8058 C207.1703,211.1358 185.5088,238.3428 168.5488,259.6328 " fill="none" id="EC2 Control-Plane-to-EC2 Worker 1" style="stroke:#181818;stroke-width:1.0;"/><polygon fill="#181818" points="164.8103,264.3258,173.5467,259.7787,167.9257,260.415,167.2894,254.794,164.8103,264.3258" style="stroke:#181818;stroke-width:1.0;"/></g><!--link EC2 Control-Plane to EC2 Worker 2--><g id="link_EC2 Control-Plane_EC2 Worker 2"><path d="M259.8903,189.8058 C276.8703,211.1358 298.5319,238.3428 315.4919,259.6328 " fill="none" id="EC2 Control-Plane-to-EC2 Worker 2" style="stroke:#181818;stroke-width:1.0;"/><polygon fill="#181818" points="319.2303,264.3258,316.7512,254.794,316.1149,260.415,310.494,259.7787,319.2303,264.3258" style="stroke:#181818;stroke-width:1.0;"/></g><!--link EC2 Worker 1 to EC2 Worker 2--><g id="link_EC2 Worker 1_EC2 Worker 2"><path d="M214.1903,287.6658 C232.7403,287.6658 245.2903,287.6658 263.8503,287.6658 " fill="none" id="EC2 Worker 1-to-EC2 Worker 2" style="stroke:#181818;stroke-width:1.0;"/><polygon fill="#181818" points="269.8503,287.6658,260.8503,283.6658,264.8503,287.6658,260.8503,291.6658,269.8503,287.6658" style="stroke:#181818;stroke-width:1.0;"/></g><!--link EC2 Worker 2 to EC2 Worker 1--><g id="link_EC2 Worker 2_EC2 Worker 1"><path d="M269.8503,287.6658 C251.2903,287.6658 238.7403,287.6658 220.1903,287.6658 " fill="none" id="EC2 Worker 2-to-EC2 Worker 1" style="stroke:#181818;stroke-width:1.0;"/><polygon fill="#181818" points="214.1903,287.6658,223.1903,291.6658,219.1903,287.6658,223.1903,283.6658,214.1903,287.6658" style="stroke:#181818;stroke-width:1.0;"/></g><!--SRC=[ZOx12i8m38RlFiLFxptO1n1cyLuOk7FNHHbshOHs5zcxwnJdmOtj44Z2b- -Fyp4t44LLGe-jm6C7NDXs174s-ZC3J2xPSFMlRPdhG0acrxvrzWi0BdRt62WaY9DMq34aZbuQRmE9DpCigRZjRMDHBCggo3TYxBTvZciUzVECDVClf3pyHsy1rGHEb-kCcWqSdW00]--></g></svg>